<?xml version="1.0" standalone="no"?>
<!DOCTYPE svg PUBLIC "-//W3C//DTD SVG 20010904//EN"
 "http://www.w3.org/TR/2001/REC-SVG-20010904/DTD/svg10.dtd">
<svg version="1.0" xmlns="http://www.w3.org/2000/svg"
 width="500.000000pt" height="500.000000pt" viewBox="0 0 500.000000 500.000000"
 preserveAspectRatio="xMidYMid meet">

<g transform="translate(0.000000,500.000000) scale(0.100000,-0.100000)"
fill="#000000" stroke="none">
<path d="M2335 4101 c-82 -4 -118 -11 -138 -24 -22 -14 -39 -16 -95 -11 -103
10 -207 -29 -312 -116 -25 -20 -64 -47 -88 -59 -24 -12 -52 -38 -66 -60 -34
-53 -95 -98 -149 -111 -89 -19 -150 -54 -206 -116 -65 -72 -94 -132 -86 -176
5 -30 1 -38 -51 -88 -69 -68 -73 -74 -81 -150 -5 -51 -10 -64 -34 -80 -41 -30
-89 -108 -89 -146 0 -20 -15 -57 -38 -96 -35 -59 -37 -67 -34 -136 1 -48 12
-101 28 -151 15 -42 30 -108 34 -147 6 -61 13 -80 50 -135 41 -60 126 -149
142 -149 4 0 28 -31 52 -69 51 -78 68 -86 146 -71 57 11 73 6 107 -34 40 -46
117 -47 170 -2 15 13 53 31 84 40 31 8 62 23 70 32 13 15 28 23 77 38 19 6 22
4 22 -19 0 -31 39 -101 75 -135 20 -19 25 -33 25 -75 0 -62 -4 -66 -185 -195
-71 -51 -146 -108 -165 -126 -19 -18 -59 -42 -87 -53 -29 -12 -77 -31 -105
-42 -36 -14 -81 -23 -138 -25 -85 -3 -118 -13 -217 -61 -55 -27 -71 -50 -54
-82 14 -26 75 -62 120 -72 20 -4 54 -14 76 -23 46 -17 112 -20 149 -6 19 7 26
6 26 -3 0 -7 12 -27 27 -45 22 -26 40 -35 88 -43 68 -13 233 -6 261 10 30 17
191 51 240 51 53 0 96 20 145 67 34 32 43 35 170 54 103 16 147 28 191 51 80
42 93 60 93 122 -1 63 -29 116 -89 166 -136 114 -176 168 -176 234 0 9 27 42
59 72 49 45 61 63 71 105 23 94 -7 177 -81 226 -46 30 -48 45 -15 104 14 24
30 65 37 92 6 26 15 47 19 47 4 0 13 -14 21 -32 7 -17 31 -59 54 -92 23 -34
53 -82 68 -108 23 -40 38 -52 95 -78 151 -69 135 -51 174 -190 15 -53 49 -79
143 -110 35 -12 82 -35 105 -52 41 -29 42 -31 35 -71 -18 -109 -25 -136 -49
-192 -19 -45 -26 -77 -26 -128 l0 -68 51 -51 c44 -44 49 -54 44 -79 -20 -88
35 -169 128 -190 47 -10 60 -18 76 -45 40 -67 188 -109 303 -85 82 17 156 55
168 87 22 58 8 124 -30 137 -8 3 5 6 30 6 39 1 49 -4 87 -41 40 -39 46 -41 94
-39 62 3 119 24 119 44 0 8 14 17 32 21 35 7 68 32 68 51 0 7 7 18 15 25 28
23 18 58 -24 84 -22 14 -42 30 -46 36 -3 5 -14 10 -24 10 -10 0 -26 9 -36 20
-13 14 -31 20 -64 20 -25 0 -82 9 -126 19 -83 20 -90 25 -145 106 -32 48 -107
122 -142 141 -21 11 -28 22 -28 44 0 20 -11 43 -33 67 -18 21 -47 58 -65 82
-32 44 -32 46 -32 163 0 65 1 118 3 118 1 0 26 -9 56 -21 l55 -20 53 26 c32
17 80 30 120 35 70 7 169 50 184 80 86 166 120 250 125 310 3 36 12 82 20 103
8 20 14 61 14 90 0 34 13 93 36 163 39 120 40 170 6 267 -13 39 -14 55 -5 90
l12 42 -73 70 c-40 39 -87 89 -105 112 -29 38 -31 45 -25 96 l6 54 -58 60
c-33 33 -82 72 -111 86 -48 25 -53 31 -78 97 -15 40 -37 82 -49 95 -11 13 -61
44 -111 70 l-90 47 -90 -7 c-128 -10 -148 -10 -265 0 -58 5 -163 9 -235 10
-71 1 -152 7 -180 14 -138 34 -123 33 -330 22z m241 -22 l44 -11 -29 -34 c-84
-95 -140 -235 -167 -414 -27 -190 -8 -294 65 -348 17 -12 31 -26 31 -30 0 -8
-103 -59 -169 -83 l-35 -13 32 -8 c25 -7 46 -3 94 16 35 14 66 22 71 17 16
-16 -46 -43 -141 -63 -102 -21 -112 -24 -112 -39 0 -6 37 -7 98 -3 95 7 98 8
145 47 45 37 49 43 45 79 -3 31 -1 37 12 32 87 -38 148 -55 180 -49 25 4 31 3
20 -4 -21 -15 -88 -13 -135 4 -45 16 -70 4 -34 -16 15 -8 51 -12 92 -10 88 3
91 -17 7 -59 -33 -16 -62 -30 -64 -30 -11 0 8 36 28 53 20 17 20 18 2 15 -11
-2 -27 -16 -36 -32 -20 -37 -46 -54 -60 -40 -7 7 -5 18 8 35 12 14 17 31 13
42 -6 16 -9 16 -31 -8 -13 -14 -20 -25 -17 -25 4 0 0 -11 -9 -25 -9 -14 -12
-25 -8 -25 11 0 -18 -20 -29 -20 -4 0 -3 9 3 19 17 32 12 34 -21 7 -17 -14
-38 -26 -47 -27 -9 0 -49 -2 -88 -5 -71 -4 -72 -4 -84 25 -9 22 -9 34 0 50 14
26 0 27 -33 1 -28 -22 -86 -26 -120 -9 l-21 12 24 9 24 9 -29 15 c-15 8 -33
13 -39 11 -6 -3 -19 0 -29 5 -14 7 -16 13 -7 23 9 10 6 15 -12 20 -13 4 -31
16 -41 26 -10 11 -23 16 -30 12 -8 -5 -8 -8 1 -11 7 -2 12 -11 12 -20 0 -9 15
-33 35 -52 69 -70 91 -98 92 -119 2 -27 -14 -28 -22 -1 -3 11 -11 20 -16 20
-6 0 -7 -4 -4 -10 3 -5 1 -10 -5 -10 -6 0 -9 8 -6 18 9 28 -6 41 -95 85 -86
43 -109 67 -67 67 30 0 48 -17 41 -38 -4 -9 -2 -13 4 -9 5 3 29 -3 52 -15 23
-11 44 -18 48 -15 3 3 -6 9 -21 13 -32 8 -203 231 -265 344 -46 84 -47 90 -26
90 19 0 19 14 0 34 -8 8 -15 21 -16 28 0 7 -4 4 -8 -7 -13 -30 -24 59 -19 146
3 60 8 74 27 90 31 25 42 24 32 -3 -35 -92 -15 -225 53 -363 52 -104 154 -217
275 -302 88 -62 140 -73 225 -49 78 23 86 41 86 203 0 132 3 145 33 156 9 3
17 15 17 26 0 11 3 28 6 38 3 10 -2 7 -10 -7 -10 -16 -15 -19 -16 -10 0 13 -1
13 -10 0 -13 -20 -12 -9 4 87 18 102 36 161 86 290 40 102 49 143 30 143 -5 0
-10 5 -10 10 0 13 40 13 96 -1z m-127 -6 c22 -6 23 -9 18 -60 -3 -31 -20 -84
-41 -126 -19 -40 -38 -87 -41 -105 -10 -51 -34 -37 -83 48 -49 85 -52 128 -11
184 16 21 17 26 5 17 -10 -8 -26 -31 -36 -52 -15 -28 -24 -36 -39 -32 -10 2
-22 0 -25 -6 -4 -6 4 -13 18 -17 20 -5 46 -45 46 -70 0 -2 -15 -4 -32 -4 -18
0 -53 -5 -77 -11 -51 -11 -101 -4 -101 16 0 8 8 16 19 20 22 7 59 45 44 45 -6
0 -16 -7 -23 -15 -15 -18 -42 -19 -58 -3 -9 9 -7 15 6 25 15 12 10 13 -35 8
-39 -5 -53 -4 -53 5 0 17 -96 6 -119 -13 -28 -24 -91 -57 -91 -48 0 18 106 94
185 132 57 28 92 39 125 39 62 0 92 -10 86 -26 -3 -8 -9 -21 -12 -29 -11 -28
15 -15 33 16 30 51 75 68 178 68 50 1 101 -2 114 -6z m361 -59 l110 -37 45 17
c45 18 60 36 28 36 -10 0 -27 -7 -37 -15 -26 -20 -45 -19 -97 4 l-42 19 47 7
c26 4 70 5 99 1 29 -3 86 -9 127 -12 47 -4 95 -15 127 -30 28 -13 55 -24 60
-24 5 0 26 -9 47 -21 52 -28 56 -18 7 17 -22 16 -41 32 -41 35 -1 22 161 26
179 5 6 -7 24 -16 39 -19 67 -15 124 -76 150 -162 9 -30 9 -41 -1 -47 -21 -13
-35 -9 -30 10 5 22 -28 102 -51 121 -17 14 -23 2 -7 -15 4 -5 13 -24 20 -43
18 -54 -1 -98 -63 -151 -62 -52 -83 -62 -71 -34 5 11 10 37 11 59 l4 40 -14
-31 c-16 -33 -96 -118 -104 -109 -3 2 1 11 8 20 17 20 27 145 11 145 -6 0 -11
-5 -11 -11 0 -33 -47 -113 -78 -134 -38 -26 -53 -26 -32 0 23 28 5 25 -32 -5
-32 -26 -124 -70 -148 -70 -6 0 -10 17 -10 38 0 42 -9 82 -19 82 -3 0 -12 -12
-18 -27 -10 -20 -10 -29 -2 -34 17 -10 4 -49 -30 -89 l-30 -35 4 52 4 52 -60
-41 c-33 -23 -58 -43 -56 -45 5 -4 46 13 69 29 28 20 30 3 6 -46 -16 -34 -36
-54 -73 -76 -27 -17 -70 -43 -95 -58 -70 -44 -125 -62 -207 -69 -67 -5 -78 -4
-89 12 -21 29 -17 43 14 48 25 4 25 4 -5 6 l-33 1 0 63 c0 56 3 65 23 76 l22
12 -22 -5 c-20 -4 -23 0 -23 30 0 26 5 37 23 43 50 20 75 33 138 74 36 23 83
53 103 66 21 13 42 35 47 47 6 18 16 24 38 24 16 0 33 5 37 11 5 9 -5 10 -37
5 -24 -3 -73 -10 -108 -15 -83 -12 -104 -31 -33 -31 29 0 52 -4 52 -10 0 -15
-56 -40 -92 -41 -18 0 -51 -6 -73 -14 l-40 -13 55 -1 c51 -2 53 -3 36 -16 -19
-14 -116 -21 -128 -10 -11 11 20 122 54 196 20 42 53 99 74 127 34 45 43 51
77 51 20 1 87 -15 147 -35z m-863 -111 c-1 -10 -6 -24 -10 -30 -5 -7 -5 -18
-2 -23 4 -6 1 -9 -7 -8 -7 2 -14 -7 -16 -20 -2 -12 -7 -20 -12 -17 -5 3 -7 12
-3 20 3 8 0 15 -6 15 -6 0 -14 -13 -17 -30 -4 -17 -13 -30 -21 -30 -10 0 -12
6 -8 20 4 14 2 20 -9 20 -8 0 -17 -13 -21 -30 -9 -42 -22 -46 -30 -8 l-7 32
-17 -30 -16 -29 -3 27 c-4 32 23 87 46 95 9 3 24 12 32 18 19 16 44 22 92 24
31 1 37 -2 35 -16z m341 -96 c12 -18 22 -36 22 -40 0 -11 -174 5 -182 17 -17
25 -5 33 60 43 37 5 69 11 72 11 3 1 15 -13 28 -31z m-268 -1 c0 -19 40 -67
50 -61 5 3 11 -1 13 -7 3 -7 6 -3 6 10 1 13 5 20 11 17 14 -9 13 8 -2 23 -8 8
-15 9 -25 1 -10 -9 -13 -7 -13 10 0 27 18 27 41 -1 24 -26 24 -51 2 -74 -17
-17 -17 -18 0 -11 25 9 22 -13 -8 -53 -23 -32 -31 -29 -25 10 1 8 -1 12 -5 8
-4 -4 -8 -34 -9 -67 -2 -34 -6 -64 -9 -68 -4 -3 -31 -8 -61 -11 -45 -4 -61 0
-100 23 -25 15 -43 31 -40 36 3 5 -1 9 -9 9 -17 0 -43 28 -34 37 4 3 13 0 21
-6 18 -15 56 -5 56 14 0 15 -27 28 -32 14 -2 -5 -18 -7 -36 -3 -23 5 -37 15
-43 32 -12 30 -7 47 12 47 34 1 129 27 129 36 0 5 6 9 13 9 7 0 18 9 25 20 14
23 72 28 72 6z m-376 -183 c7 -30 5 -33 -16 -34 -21 -1 -21 -1 5 -11 20 -7 36
-27 58 -72 35 -73 61 -115 112 -183 20 -28 37 -53 37 -55 0 -6 -101 9 -108 17
-3 3 3 5 14 6 15 1 13 3 -6 9 -14 4 -32 8 -40 9 -13 1 -13 0 0 -9 20 -13 4
-12 -43 1 l-39 10 4 64 c2 49 0 61 -9 53 -19 -16 -36 38 -24 74 10 29 -2 41
-13 12 -10 -26 -7 -89 5 -101 6 -6 9 -23 7 -39 -3 -29 -4 -29 -62 -27 -86 3
-102 9 -117 45 -7 17 -15 26 -17 20 -2 -6 2 -20 8 -31 22 -42 -33 -11 -83 46
-17 19 -32 31 -35 28 -11 -11 81 -93 119 -105 21 -7 39 -17 39 -21 0 -4 -22
-24 -50 -44 -27 -20 -50 -41 -50 -46 0 -5 -15 -17 -34 -26 -19 -9 -40 -27 -47
-40 -7 -14 -21 -29 -31 -34 -11 -6 -18 -21 -18 -38 0 -19 -7 -31 -22 -39 -21
-9 -18 -11 19 -11 29 -1 67 -14 119 -40 75 -39 78 -41 107 -107 l29 -67 -15
-106 c-10 -74 -17 -99 -22 -83 -8 23 -21 29 -27 13 -2 -6 -44 -6 -109 1 -103
11 -106 12 -128 44 -13 18 -28 63 -34 103 -7 38 -16 73 -21 78 -15 15 15 -161
34 -196 8 -17 8 -21 -4 -21 -8 0 -20 16 -27 35 -7 19 -17 35 -21 35 -12 0 -9
-22 7 -53 13 -25 13 -29 -1 -34 -24 -9 -91 -73 -77 -73 6 0 15 5 18 10 4 6 29
22 57 36 61 31 88 30 332 -10 159 -26 160 -26 200 -65 49 -46 95 -58 152 -37
21 8 32 15 23 15 -15 1 -60 41 -45 41 29 0 96 -56 96 -80 0 -18 -42 -61 -77
-79 -12 -6 -48 -11 -81 -11 -51 0 -62 3 -75 23 -21 32 -75 47 -194 54 -90 5
-108 3 -156 -16 -50 -21 -135 -91 -110 -91 7 0 15 5 18 10 3 6 11 10 18 10 6
0 -8 -19 -31 -43 -39 -39 -56 -87 -32 -87 6 0 10 10 10 23 0 16 3 19 9 8 7
-11 12 -7 25 15 14 27 15 28 16 6 0 -13 4 -21 10 -17 5 3 10 -20 12 -55 4 -76
21 -82 29 -10 8 77 26 120 65 157 19 18 34 35 34 38 0 10 -70 -46 -85 -69 -10
-13 -18 -17 -24 -11 -16 16 44 103 75 111 14 4 70 4 123 2 185 -9 216 -50 125
-167 -27 -35 -59 -78 -72 -97 -13 -19 -30 -38 -38 -41 -16 -6 -49 -62 -40 -70
2 -3 11 4 18 16 16 27 32 27 25 0 -4 -16 -3 -18 9 -8 8 6 14 24 14 39 0 15 7
33 15 40 13 11 15 5 15 -49 0 -72 16 -81 24 -13 13 114 18 130 57 177 21 26
39 55 39 65 0 27 10 30 100 34 59 2 90 -2 118 -14 l37 -17 -40 -8 c-38 -8
-130 3 -167 20 -25 10 -23 -12 2 -25 10 -6 55 -11 99 -13 45 -1 81 -3 81 -5 1
-21 -168 -220 -199 -235 -9 -5 -22 -17 -29 -28 -26 -41 11 -15 103 72 52 51
97 90 100 87 2 -2 -7 -28 -20 -58 l-25 -55 25 30 c14 17 30 49 36 73 7 23 15
45 20 48 15 9 48 94 43 109 -4 8 -20 19 -38 23 -31 8 -50 42 -23 42 27 0 102
-30 114 -46 13 -18 4 -59 -25 -107 -11 -18 -30 -50 -42 -72 -13 -22 -30 -53
-40 -70 -10 -19 -31 -35 -55 -43 -22 -7 -55 -25 -74 -39 -19 -15 -46 -26 -59
-25 -26 2 -92 -28 -111 -52 -22 -26 -53 -18 -100 25 l-44 41 -57 -12 c-81 -17
-98 -12 -136 43 -18 26 -62 72 -98 103 -37 31 -89 88 -117 127 -50 69 -51 71
-59 166 -4 53 -15 116 -25 141 -9 25 -19 74 -22 110 -5 58 -2 72 21 119 15 29
30 50 33 47 3 -3 6 -34 5 -68 -1 -35 2 -88 7 -118 8 -52 9 -50 10 43 0 53 4
97 9 97 15 0 30 -16 50 -55 12 -22 21 -37 22 -34 1 16 -35 86 -56 112 -20 23
-24 40 -24 90 l0 61 62 63 62 62 -3 61 -2 62 58 54 c65 61 86 70 127 55 40
-16 67 -13 31 3 -38 17 -81 92 -72 127 3 13 34 53 67 87 57 59 121 99 190 117
24 6 24 5 6 -9 -11 -9 -25 -16 -32 -16 -7 0 -15 -3 -17 -7 -3 -5 15 -6 39 -5
38 4 47 0 74 -29 21 -23 30 -29 30 -17 0 9 -15 28 -32 43 l-33 28 50 44 50 44
6 -63 c3 -35 9 -78 13 -95z m2059 126 c87 -45 168 -102 182 -130 12 -23 13
-38 4 -79 -12 -55 -5 -96 11 -70 7 12 16 7 44 -25 20 -22 41 -52 48 -66 6 -15
29 -37 51 -50 46 -28 61 -58 47 -95 -6 -14 -10 -37 -10 -51 0 -39 -26 -12 -33
35 -4 23 -15 42 -29 51 -22 13 -23 13 -5 -6 9 -11 17 -28 17 -39 0 -11 9 -36
20 -58 17 -29 20 -48 15 -84 -11 -78 -25 -124 -59 -192 -44 -86 -56 -130 -17
-60 57 101 82 165 96 233 15 79 21 90 31 52 17 -68 -34 -338 -58 -303 -5 8 -6
-21 -2 -68 5 -62 3 -89 -9 -115 -8 -19 -15 -57 -15 -85 0 -41 -11 -74 -55
-170 -30 -65 -58 -128 -61 -139 -3 -11 -14 -25 -25 -32 -17 -11 -19 -8 -23 24
-3 23 0 37 9 40 7 3 13 11 13 18 0 7 14 39 30 71 17 32 23 50 14 39 -9 -11
-27 -44 -41 -72 -13 -29 -29 -53 -34 -53 -5 0 -9 -18 -9 -40 0 -47 -26 -69
-92 -77 l-43 -6 21 24 c16 18 21 35 19 69 -3 72 23 159 68 225 22 33 33 54 24
47 -30 -25 -83 -116 -95 -165 -7 -26 -12 -70 -12 -97 0 -46 -3 -52 -32 -70
-38 -23 -68 -25 -87 -8 -11 11 -13 10 -9 -2 2 -8 15 -17 29 -20 22 -6 20 -8
-25 -28 -27 -12 -56 -22 -66 -22 -24 0 -80 20 -80 29 0 4 25 20 55 36 60 30
83 51 44 41 -13 -4 -55 -23 -92 -42 -85 -43 -107 -43 -144 -1 -16 19 -51 48
-77 67 l-49 33 6 51 c3 29 12 69 21 89 14 34 18 37 55 37 40 0 40 -1 29 -25
-6 -13 -19 -27 -30 -30 -10 -4 -23 -16 -29 -28 -12 -22 -12 -22 10 -3 21 19
21 19 21 -6 0 -38 11 -88 20 -88 5 0 6 17 3 39 -6 43 10 103 32 121 12 10 20
9 40 -4 36 -24 31 -13 -15 33 -37 37 -40 44 -41 98 l-1 58 -12 -55 -12 -55
-23 35 c-18 28 -21 30 -16 10 4 -14 14 -35 21 -48 14 -21 13 -23 -16 -29 -17
-3 -37 -15 -45 -26 -15 -21 -15 -21 -30 -2 -8 11 -14 25 -14 30 0 16 25 45 32
38 4 -3 7 26 7 65 0 103 9 117 83 132 34 6 83 23 109 36 27 14 74 31 106 38
46 12 51 14 24 15 l-32 1 15 37 c21 50 12 53 -16 4 -21 -38 -44 -57 -34 -28 3
6 1 35 -4 62 -8 47 -9 48 -10 13 0 -21 -4 -38 -7 -38 -12 0 -91 60 -124 95
-33 34 -35 40 -34 99 2 80 20 136 43 136 10 0 38 -7 64 -16 47 -16 47 -16 47
-62 1 -26 6 -60 13 -75 11 -25 12 -18 12 60 1 133 40 201 168 289 49 34 49 37
2 18 -18 -7 -19 -6 -5 11 14 16 13 17 -6 11 -14 -4 -30 1 -47 14 -31 25 -46
26 -25 3 34 -39 32 -63 -8 -105 -65 -66 -136 -84 -211 -53 -20 8 -38 13 -41
10 -3 -2 12 -12 34 -21 l39 -17 -50 -23 c-61 -28 -68 -28 -133 -9 -64 19 -144
95 -178 169 -41 88 -33 110 57 161 114 65 124 67 225 60 81 -6 100 -12 139
-37 25 -16 45 -33 45 -36 0 -4 10 -18 21 -32 l20 -25 -6 35 c-4 19 -16 50 -26
69 l-20 33 36 39 c56 62 133 127 153 129 1 0 22 -10 45 -21z m-1366 -21 c22
-8 32 -17 29 -28 -3 -8 -7 -30 -11 -47 -4 -18 -11 -35 -16 -38 -5 -3 -30 6
-56 20 -27 15 -37 18 -23 8 68 -50 76 -74 30 -98 -38 -19 -37 -20 -43 15 -4
19 -17 35 -38 45 -36 19 -74 94 -63 127 6 19 11 20 82 14 42 -3 91 -11 109
-18z m-597 -17 c0 -11 12 -34 26 -51 15 -17 23 -34 20 -38 -4 -3 -11 0 -16 8
-5 8 -12 11 -16 8 -9 -9 35 -68 48 -65 7 1 14 -6 16 -15 4 -20 -18 -24 -48 -8
-19 10 -40 70 -54 148 -4 24 -2 32 9 32 8 0 15 -9 15 -19z m474 -137 c21 -20
21 -60 0 -68 -24 -9 -24 -9 -24 39 0 50 2 52 24 29z m-309 -43 c3 -5 1 -12 -4
-16 -13 -8 -61 5 -61 16 0 12 57 12 65 0z m435 3 c0 -19 -23 -42 -47 -47 -15
-3 -37 -13 -48 -22 l-20 -17 20 7 c11 4 35 9 53 12 l32 6 0 -90 0 -90 -39 -11
c-46 -14 -128 -16 -136 -3 -3 6 14 14 37 20 l43 10 -47 -5 c-39 -4 -48 -2 -57
15 -16 30 -15 31 37 33 l47 1 -50 6 c-27 3 -51 3 -53 0 -2 -4 -11 -6 -20 -4
-9 1 -12 0 -7 -2 6 -2 23 -23 38 -47 41 -66 45 -67 112 -51 89 21 97 20 93
-12 -3 -26 -7 -29 -63 -35 -47 -6 -68 -4 -95 8 -24 12 -35 13 -38 5 -4 -13
-81 -15 -101 -2 -10 7 -2 12 29 18 24 4 45 14 48 22 3 10 0 11 -17 2 -13 -7
-40 -9 -70 -5 -38 5 -57 15 -87 44 -54 51 -88 90 -108 122 l-17 26 42 -9 c23
-6 47 -12 53 -15 6 -3 2 2 -9 10 -11 9 -37 19 -58 23 -37 6 -67 33 -67 61 0
16 -5 17 138 -32 57 -20 115 -44 130 -54 25 -16 26 -16 19 1 -8 21 1 21 27 2
25 -19 36 -19 36 -1 0 9 39 34 93 60 85 41 127 54 127 40z m-360 -24 c0 -5 -7
-10 -15 -10 -8 0 -15 5 -15 10 0 6 7 10 15 10 8 0 15 -4 15 -10z m950 -134
c22 -13 48 -32 55 -44 14 -18 12 -23 -25 -56 -42 -38 -110 -76 -135 -76 -9 0
-13 5 -10 10 9 15 -8 12 -33 -6 -30 -21 -46 -14 -28 12 8 11 33 26 55 32 22 7
43 17 46 22 3 5 -10 3 -30 -6 l-36 -14 6 27 c6 26 5 27 -7 7 -7 -11 -26 -37
-42 -58 -32 -41 -51 -43 -119 -17 -38 15 -27 28 32 36 37 5 56 14 75 36 14 16
33 29 41 29 9 0 35 20 59 45 25 25 46 45 49 45 3 0 24 -11 47 -24z m-110 -4
c0 -13 -138 -104 -151 -100 -7 2 1 12 17 23 16 10 33 24 37 32 18 30 97 67 97
45z m-1175 -87 c91 -40 135 -74 135 -102 0 -31 -41 -108 -83 -157 -28 -32 -42
-39 -83 -43 -47 -6 -48 -5 -33 13 16 18 32 64 23 64 -3 0 -20 -17 -39 -37 -31
-34 -37 -36 -94 -36 -50 0 -69 5 -109 30 -27 16 -60 33 -75 37 -24 6 -26 10
-23 44 5 56 23 85 72 116 24 15 49 37 55 47 32 61 147 72 254 24z m1021 10
c-11 -8 -27 -15 -35 -15 -13 1 -12 4 3 15 11 8 27 15 35 15 13 -1 12 -4 -3
-15z m-66 0 c0 -3 -15 -12 -32 -20 -25 -10 -36 -10 -46 -2 -12 9 -11 12 5 18
22 9 73 11 73 4z m456 -36 c47 -49 103 -77 172 -85 l63 -7 -8 -31 c-4 -17 -8
-63 -8 -102 0 -62 3 -75 28 -107 15 -20 52 -51 82 -69 77 -46 81 -67 22 -103
-42 -26 -94 -43 -134 -44 -52 -1 -73 -30 -73 -98 0 -36 -8 -75 -20 -102 -25
-54 -25 -51 6 -96 l25 -37 -33 19 c-27 16 -34 27 -39 64 -12 92 -77 196 -191
305 -63 60 -76 78 -82 113 -4 29 -19 55 -45 84 -50 55 -61 78 -61 124 1 49 23
75 83 97 27 10 76 37 110 61 34 24 65 43 68 44 3 0 18 -13 35 -30z m-446 2 c0
-15 -29 -33 -41 -25 -9 5 -7 11 6 21 22 15 35 17 35 4z m-825 -31 c3 -5 2 -10
-4 -10 -5 0 -13 5 -16 10 -3 6 -2 10 4 10 5 0 13 -4 16 -10z m99 -5 c7 -20
-33 -20 -60 0 -18 13 -17 14 17 15 24 0 39 -5 43 -15z m289 -22 c2 -5 7 -21
11 -36 7 -28 6 -29 -26 -22 -18 4 -40 13 -48 21 -12 12 -12 16 5 29 22 16 51
20 58 8z m137 -17 c0 -17 -51 -39 -81 -34 -32 4 -37 35 -7 41 51 10 88 7 88
-7z m-419 -57 c126 -50 117 -43 94 -73 -8 -11 -15 -30 -15 -42 0 -51 -40 -144
-88 -204 -52 -64 -92 -152 -92 -201 0 -34 3 -33 -47 -15 -24 8 -58 12 -86 9
-57 -7 -61 6 -19 57 66 80 67 115 12 216 -22 40 -40 75 -40 78 0 2 15 7 33 11
49 10 72 29 114 92 44 67 65 93 74 93 3 0 31 -10 60 -21z m862 -76 c7 -57 -1
-65 -108 -118 -75 -36 -246 -85 -300 -85 -20 0 -35 -6 -39 -15 -4 -11 -22 -15
-74 -15 -94 0 -105 10 -106 96 l-1 69 30 3 c38 5 158 -8 151 -15 -3 -3 -31 -6
-63 -7 -49 -1 -58 -4 -61 -21 -3 -11 -10 -24 -18 -28 -18 -10 -18 -27 0 -27 8
0 16 -10 18 -22 3 -21 9 -23 58 -24 51 -1 52 -1 8 3 -39 3 -48 8 -48 24 0 17
7 19 59 19 71 0 91 6 91 29 -1 14 -2 14 -11 -1 -8 -15 -23 -18 -97 -16 l-87 2
75 6 75 6 -58 2 c-42 1 -57 6 -55 15 3 6 20 13 39 15 135 10 345 68 454 125
28 14 53 26 56 27 4 0 9 -21 12 -47z m-525 -9 c6 -2 12 -10 12 -19 0 -11 -12
-15 -48 -15 -45 0 -92 20 -92 40 0 8 98 4 128 -6z m-173 -56 c34 -17 45 -28
45 -46 0 -13 -4 -20 -10 -17 -5 3 -10 1 -10 -4 0 -6 7 -11 15 -11 9 0 15 -9
15 -25 0 -14 -4 -25 -8 -25 -13 0 -122 71 -122 80 0 24 14 70 21 70 5 0 29
-10 54 -22z m686 -67 c12 -22 31 -44 43 -49 21 -10 21 -11 -3 -11 -23 -1 -22
-2 9 -23 33 -22 136 -145 129 -153 -2 -2 -16 -6 -30 -10 -22 -5 -27 -3 -32 17
-9 34 -122 147 -165 165 l-36 15 24 18 c23 17 24 19 6 26 -17 7 -17 8 5 25 13
10 25 19 26 19 1 0 12 -18 24 -39z m-1153 -3 c26 -28 60 -107 68 -158 5 -33 1
-45 -27 -86 -32 -44 -34 -45 -37 -21 -2 14 -9 31 -17 37 -11 9 -12 4 -8 -30 4
-31 2 -40 -9 -40 -8 0 -20 10 -26 23 l-11 22 0 -22 c-1 -13 -5 -23 -11 -23 -5
0 -10 10 -10 23 0 12 -5 29 -10 37 -7 11 -10 6 -10 -20 0 -25 -3 -31 -11 -23
-9 9 -9 26 1 70 7 32 12 87 11 123 -1 69 2 80 34 98 30 17 49 14 73 -10z m447
-102 c6 -4 1 -4 -10 2 -11 6 -29 21 -40 34 -19 22 -19 22 10 -2 17 -14 35 -29
40 -34z m-34 -3 c10 -12 5 -11 -18 6 -18 12 -33 24 -33 27 0 9 37 -15 51 -33z
m428 -145 c-26 -51 -29 -56 -29 -37 0 15 36 79 45 79 3 0 -4 -19 -16 -42z
m-233 -40 c33 -38 74 -57 142 -67 l57 -9 -46 -1 c-68 -2 -145 41 -187 104 -19
28 -24 39 -12 25 12 -14 32 -37 46 -52z m333 -91 c13 -33 3 -59 -11 -32 -6 9
-12 54 -14 98 -3 80 -3 81 6 22 4 -33 13 -73 19 -88z m506 107 c43 -46 77
-150 83 -252 2 -51 9 -95 13 -98 5 -3 9 10 9 28 0 49 12 63 38 47 19 -12 21
-20 16 -65 -6 -49 -5 -52 27 -74 19 -13 57 -45 86 -72 38 -35 60 -48 81 -48
34 0 33 1 48 -209 6 -93 21 -173 23 -123 1 33 15 27 60 -27 31 -37 41 -57 41
-84 0 -27 6 -39 28 -54 15 -10 55 -48 88 -84 137 -153 153 -169 159 -169 3 0
3 5 0 10 -9 14 14 13 82 -5 31 -8 76 -15 100 -15 34 0 41 -3 37 -15 -5 -12 2
-15 28 -15 22 0 42 -7 53 -20 10 -11 24 -20 32 -20 7 0 13 -4 13 -10 0 -5 -7
-10 -15 -10 -8 0 -15 5 -15 10 0 6 -5 10 -11 10 -8 0 -7 -5 1 -15 8 -10 25
-15 43 -13 32 3 42 -8 27 -32 -8 -12 -17 -10 -62 14 -29 15 -63 37 -74 48 -17
15 -40 21 -95 24 -50 2 -67 1 -54 -6 11 -5 42 -9 69 -9 39 -1 55 -7 83 -31 33
-30 34 -30 8 -30 -28 0 -32 -12 -10 -30 12 -10 24 -11 52 -2 42 13 53 9 53
-19 0 -12 -10 -23 -26 -29 -35 -14 -54 -12 -54 4 0 14 -41 46 -60 46 -6 0 -32
14 -58 32 -33 23 -64 34 -102 39 -31 3 -67 9 -80 13 -15 3 -10 -1 10 -10 19
-9 52 -18 73 -19 22 -1 47 -11 61 -24 12 -11 28 -21 35 -21 7 0 9 -4 6 -10 -4
-6 6 -10 24 -10 48 0 45 -18 -4 -22 -54 -4 -73 1 -54 13 11 7 10 9 -3 9 -21 0
-23 -13 -5 -28 9 -8 31 -9 68 -2 45 7 56 6 67 -8 30 -39 6 -61 -79 -68 l-64
-6 -41 44 c-26 29 -49 44 -65 44 -97 0 -108 4 -158 49 -31 27 -65 47 -87 51
-49 9 -183 -1 -197 -15 -14 -14 2 -14 58 -1 55 13 139 2 177 -24 41 -27 47
-45 13 -38 -29 5 -165 -16 -186 -29 -11 -7 -11 -10 -1 -21 10 -9 53 -13 156
-13 128 0 146 -2 165 -19 18 -16 21 -29 19 -70 l-3 -50 -70 -23 c-77 -24 -230
-31 -297 -13 -40 12 -80 66 -80 109 0 23 -1 23 -14 7 -16 -23 -79 -14 -126 18
-32 21 -33 24 -33 91 1 78 32 371 41 386 3 5 -3 24 -14 42 -21 35 -30 74 -41
187 -13 121 -74 231 -166 294 -19 14 -19 15 8 21 15 4 27 11 27 16 0 12 -27
11 -35 -1 -3 -5 -19 -10 -35 -10 -16 0 -32 5 -35 10 -4 6 6 10 22 10 18 0 24
3 15 8 -7 5 -37 4 -68 -1 -69 -13 -80 -4 -58 48 l16 39 14 -27 c8 -15 17 -27
19 -27 6 0 -16 63 -26 74 -5 6 -10 28 -10 50 -1 36 -3 32 -15 -29 -10 -47 -22
-77 -38 -94 l-24 -24 -63 23 c-85 32 -133 82 -159 167 -29 94 -27 112 20 158
l40 39 72 -51 c40 -27 89 -58 108 -67 39 -19 33 -14 -80 64 -44 30 -78 60 -77
65 5 15 128 84 163 91 40 8 44 -4 54 -131 l7 -90 1 80 c1 44 -2 96 -8 114 -5
19 -8 36 -6 38 7 7 92 21 134 22 34 1 48 -4 67 -25z m-1186 -61 c23 -20 41
-43 41 -51 0 -22 22 -92 30 -92 3 0 12 16 19 35 14 41 19 41 87 16 28 -11 88
-27 134 -35 46 -9 88 -22 93 -29 4 -6 6 -43 4 -82 -3 -40 -1 -62 4 -50 4 11 8
48 8 83 l1 62 45 0 c32 0 45 -4 45 -14 0 -29 -34 -93 -78 -151 -43 -55 -45
-58 -15 -37 l31 22 36 -20 c53 -32 96 -106 96 -166 0 -72 -34 -134 -87 -159
-41 -19 -42 -22 -43 -67 0 -26 5 -68 12 -92 11 -42 10 -47 -15 -83 -29 -42
-33 -53 -17 -53 5 0 20 18 32 40 26 45 37 49 64 19 10 -12 45 -41 77 -66 65
-50 97 -104 99 -166 2 -70 -13 -92 -79 -117 -66 -25 -159 -46 -250 -56 l-63
-7 0 29 c0 17 10 40 25 56 29 32 32 43 8 29 -49 -27 -73 -62 -73 -104 0 -51
-5 -58 -50 -86 -35 -21 -117 -30 -105 -11 10 16 -4 12 -43 -15 -47 -32 -67
-33 -52 -4 14 26 2 41 -12 15 -26 -46 -90 -81 -74 -40 8 20 -2 54 -15 54 -5 0
-9 -10 -9 -23 0 -13 -6 -32 -14 -43 -13 -17 -27 -19 -143 -19 -70 0 -141 4
-156 8 -33 9 -51 48 -42 93 9 50 41 58 195 49 127 -7 130 -6 130 14 0 22 -23
29 -120 34 -55 2 -55 2 -25 16 19 8 53 11 95 8 60 -4 63 -3 35 9 l-30 13 30 2
c17 2 38 3 48 2 9 0 17 4 17 9 0 13 -56 9 -124 -7 -84 -22 -116 -35 -149 -62
-16 -13 -38 -23 -50 -23 -29 0 -87 -36 -87 -54 0 -21 -23 -26 -110 -26 -54 0
-81 4 -89 14 -18 22 24 48 66 40 38 -7 83 2 83 16 0 6 -12 10 -27 10 -22 0
-25 -2 -13 -10 11 -7 7 -10 -18 -10 -29 0 -32 2 -23 19 9 17 19 18 73 14 53
-5 60 -4 55 9 -4 12 8 21 51 36 31 11 68 23 82 25 l25 4 -26 2 c-30 1 -159
-36 -173 -50 -6 -5 -29 -9 -52 -9 -23 0 -47 -6 -53 -14 -6 -8 -25 -19 -40 -26
-16 -6 -31 -20 -34 -31 -10 -37 -87 -9 -87 31 0 18 7 20 61 17 42 -1 63 2 66
11 3 7 -4 12 -19 12 -18 0 -20 -2 -8 -10 11 -7 7 -10 -19 -10 l-33 0 23 25
c16 16 35 25 56 25 18 0 56 9 85 21 32 12 65 19 84 16 17 -3 37 -1 45 4 24 15
-104 10 -131 -6 -38 -22 -60 -18 -31 5 26 23 16 27 -14 6 -26 -17 -140 -32
-131 -17 4 6 17 11 30 11 12 0 27 5 33 11 6 6 55 15 109 20 106 9 166 21 227
44 46 18 48 18 41 0 -4 -9 0 -15 10 -15 10 0 16 8 16 21 0 26 61 84 160 152
41 28 117 82 168 119 l93 69 -6 87 c-4 48 -11 103 -16 122 -17 66 -12 85 24
97 17 5 22 8 11 6 -35 -5 -82 16 -88 40 -7 28 3 69 19 82 6 6 16 17 21 26 8
15 16 12 66 -21 32 -21 70 -40 85 -42 l28 -4 -37 -22 c-25 -16 -42 -37 -54
-68 -20 -52 -12 -72 9 -23 17 39 84 115 98 111 5 -1 9 2 9 7 0 5 -24 17 -52
25 -32 10 -69 31 -92 52 -37 35 -38 38 -28 72 10 32 9 39 -9 58 -11 12 -39 29
-63 38 -39 15 -42 18 -38 50 3 29 -1 38 -32 62 -22 18 -36 38 -36 52 0 12 2
22 4 22 2 0 23 -16 45 -37z m278 -42 c-14 -42 -23 -58 -33 -54 -8 3 -14 8 -14
12 0 8 58 101 63 101 2 0 -5 -27 -16 -59z m-394 21 c15 -15 27 -31 27 -35 0
-4 -17 -7 -38 -7 -28 0 -46 8 -70 29 -17 17 -32 32 -32 35 0 3 19 6 43 6 34 0
49 -6 70 -28z m197 -32 c17 -9 18 -14 8 -35 -14 -31 -24 -32 -32 -2 -12 47 -8
54 24 37z m585 -178 c-9 -9 -24 39 -18 55 6 14 9 11 14 -17 4 -19 6 -36 4 -38z
m397 -258 c65 -11 179 -139 192 -216 4 -21 4 -38 1 -38 -3 0 -23 9 -45 20 -21
11 -61 27 -87 36 -109 35 -111 37 -132 135 -6 25 -13 54 -17 63 -6 16 -3 17
22 12 16 -3 46 -8 66 -12z m-997 -3 c3 -5 10 -33 15 -63 6 -29 13 -62 16 -73
l7 -20 -23 20 c-13 11 -28 34 -35 50 -19 46 -2 121 20 86z m1249 -479 c11 -18
-15 -15 -36 5 -21 19 -23 49 -7 90 12 28 12 27 24 -28 6 -30 15 -61 19 -67z
m5 -172 c-5 -52 -11 -101 -14 -107 -8 -23 -36 -14 -71 21 -41 41 -45 88 -13
168 32 82 37 85 75 46 l33 -33 -10 -95z m-2091 -102 c-3 -7 -14 -14 -26 -14
-20 -2 -20 -1 -2 3 11 2 18 9 15 14 -4 5 -1 9 5 9 7 0 10 -6 8 -12z m88 1
c-21 -5 -51 -18 -66 -29 -15 -11 -33 -20 -38 -20 -5 0 -13 -7 -16 -16 -5 -13
-9 -14 -21 -4 -24 20 -18 40 13 40 15 0 45 9 67 20 22 11 53 20 70 19 28 -1
28 -1 -9 -10z m539 -58 c3 -5 2 -11 -2 -14 -16 -7 -173 5 -167 14 7 12 161 12
169 0z m2417 -73 c-17 -8 -26 -8 -34 0 -9 9 -4 12 23 11 32 0 33 -1 11 -11z
m-446 -49 c3 -5 -1 -9 -8 -9 -7 0 -53 -5 -102 -11 -62 -8 -91 -8 -99 0 -14 14
1 19 78 29 67 8 122 4 131 -9z"/>
<path d="M2396 3682 c-2 -4 -7 -24 -11 -45 -6 -29 -4 -37 8 -37 16 0 31 53 17
58 -5 2 -6 10 -3 18 5 15 -2 20 -11 6z"/>
<path d="M1720 3504 c0 -16 23 -44 35 -44 12 0 12 5 3 25 -10 21 -38 36 -38
19z"/>
<path d="M2377 3394 c-4 -4 -7 -29 -7 -56 0 -35 4 -50 16 -55 26 -10 34 9 22
57 -12 49 -21 64 -31 54z"/>
<path d="M1838 3323 c28 -39 71 -78 78 -70 9 8 -68 96 -84 97 -9 0 -7 -8 6
-27z"/>
<path d="M2413 3268 c-38 -10 -44 -28 -10 -28 20 -1 19 -2 -8 -17 -24 -14 -26
-18 -12 -21 21 -4 89 28 95 45 6 19 -30 31 -65 21z"/>
<path d="M2800 3990 c13 -6 32 -18 42 -27 9 -8 23 -13 30 -11 17 6 -28 35 -67
43 -29 5 -29 5 -5 -5z"/>
<path d="M2956 3928 c-7 -42 11 -78 39 -78 30 0 34 66 5 75 -11 3 -20 13 -20
20 0 33 -18 21 -24 -17z"/>
<path d="M2914 3807 c14 -10 17 -21 12 -40 -4 -18 0 -37 14 -59 23 -38 24 -26
6 52 -9 41 -18 56 -32 58 -19 4 -19 4 0 -11z"/>
<path d="M2790 3748 c-57 -46 -107 -83 -209 -150 -38 -26 -18 -22 42 7 84 41
259 165 254 179 -7 22 -26 14 -87 -36z"/>
<path d="M2998 3777 c6 -7 15 -23 20 -36 7 -20 10 -21 21 -8 10 13 8 19 -10
36 -25 23 -48 29 -31 8z"/>
<path d="M2653 3385 c-18 -8 -33 -19 -33 -25 0 -15 57 -12 90 5 29 15 40 35
20 35 -5 0 -10 -4 -10 -9 0 -11 -69 -36 -77 -28 -3 4 10 13 28 21 19 8 30 15
24 15 -5 0 -25 -6 -42 -14z"/>
<path d="M2518 3383 c7 -3 16 -2 19 1 4 3 -2 6 -13 5 -11 0 -14 -3 -6 -6z"/>
<path d="M1797 3813 c-4 -3 -7 -13 -7 -22 1 -13 3 -13 11 2 11 19 8 33 -4 20z"/>
<path d="M1916 3742 c-2 -4 4 -8 14 -8 10 0 16 4 14 8 -3 4 -9 8 -14 8 -5 0
-11 -4 -14 -8z"/>
<path d="M1983 3704 c-23 -25 -40 -35 -53 -31 -13 3 -20 0 -20 -10 0 -10 5
-13 18 -8 9 4 36 10 60 12 42 6 62 26 62 64 0 21 -35 7 -67 -27z m37 -14 c0
-5 -10 -10 -22 -9 -22 0 -22 1 -3 9 11 5 21 9 23 9 1 1 2 -3 2 -9z"/>
<path d="M1959 3619 c-15 -15 -14 -17 17 -27 19 -6 34 -6 34 -1 0 5 -10 10
-22 10 -13 1 -5 5 17 9 37 7 38 7 8 9 -17 0 -33 5 -35 9 -1 4 -10 0 -19 -9z"/>
<path d="M1876 3605 c4 -9 17 -14 33 -14 23 2 24 2 4 6 -13 2 -23 9 -23 14 0
5 -4 9 -10 9 -5 0 -7 -7 -4 -15z"/>
<path d="M1115 3257 c-4 -10 -5 -33 -2 -51 3 -19 1 -38 -3 -42 -5 -5 -5 -15
-1 -23 18 -28 32 24 23 81 -7 38 -11 48 -17 35z"/>
<path d="M1093 3096 c-7 -8 -18 -16 -25 -19 -9 -3 -10 -8 -3 -16 13 -13 55 13
55 35 0 17 -11 18 -27 0z"/>
<path d="M1090 3027 c-18 -9 -27 -24 -32 -52 -11 -61 -8 -126 7 -165 l13 -35
1 30 c1 17 -3 45 -8 63 -11 38 1 82 35 129 35 46 31 54 -16 30z"/>
<path d="M1474 2405 c12 -9 38 -15 65 -14 l46 1 -40 9 c-95 21 -92 21 -71 4z"/>
<path d="M1007 2378 c7 -41 4 -37 40 -44 32 -6 63 14 63 43 0 14 -3 14 -25 -1
-34 -22 -65 -21 -65 3 0 11 -4 23 -10 26 -6 4 -7 -6 -3 -27z"/>
<path d="M3728 3584 c12 -8 22 -23 22 -33 0 -10 11 -26 25 -35 15 -10 25 -26
25 -41 0 -19 10 -30 42 -46 24 -12 49 -29 56 -38 11 -14 12 -14 10 4 -2 11
-21 30 -43 42 -26 15 -42 32 -47 51 -5 16 -18 34 -33 40 -14 6 -25 18 -25 25
0 15 -31 47 -46 47 -4 0 2 -7 14 -16z"/>
<path d="M3111 3524 c0 -11 3 -14 6 -6 3 7 2 16 -1 19 -3 4 -6 -2 -5 -13z"/>
<path d="M3120 3496 c0 -11 30 -66 36 -66 2 0 -3 15 -12 33 -19 36 -24 44 -24
33z"/>
<path d="M3832 3386 c16 -6 44 -27 63 -46 61 -59 45 -109 -65 -204 -96 -83
-135 -122 -150 -152 -8 -16 -19 -33 -25 -37 -6 -5 -2 -6 8 -3 10 3 31 7 45 7
l27 1 -29 7 -29 6 50 50 c58 58 146 134 185 159 l26 17 11 -33 c13 -39 2 -112
-29 -195 -11 -29 -17 -53 -15 -53 8 0 54 108 71 166 14 48 14 56 0 83 -9 16
-16 55 -16 85 0 47 -4 60 -30 90 -30 34 -86 67 -112 65 -7 0 -1 -6 14 -13z"/>
<path d="M3215 3350 c21 -22 41 -40 44 -40 3 0 -13 18 -34 40 -21 22 -41 40
-44 40 -3 0 13 -18 34 -40z"/>
<path d="M3327 3299 c7 -7 15 -10 18 -7 3 3 -2 9 -12 12 -14 6 -15 5 -6 -5z"/>
<path d="M3368 3283 c7 -3 16 -2 19 1 4 3 -2 6 -13 5 -11 0 -14 -3 -6 -6z"/>
<path d="M3413 3273 c9 -2 23 -2 30 0 6 3 -1 5 -18 5 -16 0 -22 -2 -12 -5z"/>
<path d="M3646 2912 c-2 -4 11 -6 30 -4 19 2 34 6 34 8 0 8 -59 4 -64 -4z"/>
<path d="M3855 2848 c-14 -29 -25 -60 -24 -68 0 -8 6 1 14 21 7 20 20 50 29
67 9 18 14 32 11 32 -3 0 -17 -24 -30 -52z"/>
<path d="M3755 2564 c-9 -15 -12 -23 -6 -20 11 7 35 46 28 46 -3 0 -12 -12
-22 -26z"/>
<path d="M3626 2509 c-51 -56 -59 -81 -51 -170 6 -72 6 -77 -16 -93 -13 -9
-38 -19 -57 -22 -28 -5 -39 -2 -65 22 -28 27 -30 27 -16 5 26 -41 43 -47 96
-33 73 20 83 35 72 107 -12 81 -4 113 42 173 47 62 45 67 -5 11z"/>
<path d="M3891 2469 c-18 -39 -31 -72 -29 -75 3 -2 20 28 38 66 17 39 30 73
28 75 -2 2 -19 -27 -37 -66z"/>
<path d="M3490 2395 c-14 -8 -20 -14 -14 -15 5 0 19 7 30 15 24 18 16 19 -16
0z"/>
<path d="M3835 2328 c-4 -18 -15 -42 -24 -53 -16 -20 -16 -20 6 -1 21 17 41
72 30 82 -3 3 -8 -10 -12 -28z"/>
<path d="M3689 2309 c-23 -19 -23 -20 -2 -10 12 6 25 16 28 21 10 16 -1 12
-26 -11z"/>
<path d="M2091 3384 c0 -11 3 -14 6 -6 3 7 2 16 -1 19 -3 4 -6 -2 -5 -13z"/>
<path d="M2065 3293 c-11 -3 -24 -10 -30 -15 -7 -8 -4 -9 8 -4 10 3 30 6 43 6
13 0 24 5 24 10 0 10 -11 11 -45 3z"/>
<path d="M2520 2955 c0 -10 7 -15 18 -13 21 4 19 22 -2 26 -10 2 -16 -3 -16
-13z"/>
<path d="M2005 2960 c-8 -13 3 -30 18 -29 8 0 8 2 -1 6 -10 4 -10 8 -1 19 8 9
8 14 1 14 -6 0 -14 -4 -17 -10z"/>
<path d="M2678 2873 c7 -3 16 -2 19 1 4 3 -2 6 -13 5 -11 0 -14 -3 -6 -6z"/>
<path d="M2936 2361 c5 -4 29 -16 54 -26 54 -23 80 -43 80 -63 0 -9 10 -27 23
-40 l22 -24 -28 -24 c-26 -23 -27 -24 -6 -21 16 1 24 -4 28 -20 6 -21 23 -45
79 -111 l23 -27 -21 40 c-11 22 -30 53 -42 68 -15 19 -23 42 -23 71 0 25 -7
52 -16 62 -8 11 -23 31 -32 46 -10 15 -32 35 -50 44 -34 18 -105 38 -91 25z"/>
<path d="M2953 2214 c-15 -15 -21 -21 -12 -15 9 6 34 17 55 25 35 13 36 15 12
15 -16 1 -38 -10 -55 -25z"/>
<path d="M3220 2032 c0 -11 79 -77 85 -71 6 7 -19 34 -52 58 -18 12 -33 18
-33 13z"/>
<path d="M3450 1406 c0 -4 5 -17 11 -28 6 -12 11 -38 11 -60 -1 -33 2 -38 22
-38 35 0 37 9 10 61 -23 44 -54 81 -54 65z"/>
<path d="M3968 1333 c12 -2 32 -2 45 0 12 2 2 4 -23 4 -25 0 -35 -2 -22 -4z"/>
<path d="M3868 1313 c6 -2 18 -2 25 0 6 3 1 5 -13 5 -14 0 -19 -2 -12 -5z"/>
<path d="M3326 1142 c-4 -13 -6 -26 -3 -28 7 -7 37 7 37 18 0 5 -4 7 -9 3 -5
-3 -11 3 -13 12 -3 15 -6 14 -12 -5z"/>
<path d="M2205 2353 c-3 -15 -30 -49 -58 -75 -28 -27 -46 -48 -39 -48 24 0 99
80 106 112 8 39 1 49 -9 11z"/>
<path d="M2030 2013 c0 -13 114 -112 142 -124 16 -7 33 -7 43 -2 12 7 3 12
-35 22 -32 8 -54 20 -58 31 -7 19 -92 86 -92 73z"/>
<path d="M2256 1756 c20 -31 39 -54 41 -52 6 5 -53 92 -68 102 -6 3 6 -19 27
-50z"/>
<path d="M2189 1634 c-8 -9 -42 -34 -76 -56 -35 -22 -61 -44 -57 -49 6 -10
156 91 162 109 6 18 -13 15 -29 -4z"/>
</g>
</svg>
